<svg width="18" height="18" viewBox="0 0 18 18" fill="none" xmlns="http://www.w3.org/2000/svg">
<path fill-rule="evenodd" clip-rule="evenodd" d="M0 8.87425C0 3.97314 3.97314 0 8.87425 0C13.7754 0 17.7485 3.97314 17.7485 8.87425C17.7485 13.7754 13.7754 17.7485 8.87425 17.7485C3.97314 17.7485 0 13.7754 0 8.87425ZM10.19 6.90339H12.6967V6.18521H10.19V6.90339ZM12.4757 7.50626C12.1741 7.37284 11.8351 7.30585 11.4584 7.30585C10.8244 7.30585 10.3096 7.50406 9.91168 7.89774C9.51486 8.29252 9.31617 8.8597 9.31617 9.59929C9.31617 10.3877 9.53545 10.9577 9.9768 11.3074C10.4159 11.6577 10.9241 11.8323 11.5001 11.8323C12.1975 11.8323 12.7401 11.6248 13.1275 11.2102C13.3757 10.9489 13.5159 10.6914 13.5465 10.4388H12.3917C12.3249 10.564 12.247 10.6617 12.1585 10.7326C11.9977 10.8627 11.7878 10.928 11.5313 10.928C11.2875 10.928 11.0799 10.8742 10.9074 10.7672C10.6224 10.5953 10.4732 10.295 10.4543 9.86723H13.6061C13.6111 9.49881 13.5989 9.21549 13.5683 9.02003C13.5159 8.68565 13.4013 8.39135 13.2226 8.13768C13.0267 7.84997 12.7779 7.63913 12.4757 7.50626ZM8.48412 6.53112C8.18636 6.1314 7.68157 5.9266 6.96806 5.91617H4.14132V11.6868H6.77716C7.07436 11.6868 7.3493 11.6616 7.60365 11.6094C7.85799 11.5567 8.07783 11.4606 8.26428 11.3195C8.43013 11.1965 8.56816 11.045 8.67836 10.8654C8.85256 10.5942 8.93938 10.2873 8.93938 9.9452C8.93938 9.61357 8.86313 9.33135 8.71175 9.09964C8.5587 8.86739 8.33385 8.69773 8.03554 8.59011C8.232 8.49128 8.3806 8.38147 8.48189 8.26177C8.66277 8.04764 8.75238 7.76377 8.75238 7.41182C8.75238 7.06975 8.66277 6.77655 8.48412 6.53112Z" fill="#484848"/>
</svg>
