<svg width="18" height="18" viewBox="0 0 18 18" fill="none" xmlns="http://www.w3.org/2000/svg">
<path fill-rule="evenodd" clip-rule="evenodd" d="M8.87425 17.926C13.7754 17.926 17.7485 13.9131 17.7485 8.96299C17.7485 4.01287 13.7754 0 8.87425 0C3.97314 0 0 4.01287 0 8.96299C0 13.9131 3.97314 17.926 8.87425 17.926ZM2.8398 7.19856C2.8398 6.82131 2.94425 6.46845 3.1258 6.16734L8.57936 10.6656L8.90409 10.9335L9.22336 10.6591L14.4473 6.17071C14.6276 6.47109 14.7313 6.82272 14.7313 7.19856V10.5896C14.7313 11.6942 13.8359 12.5896 12.7313 12.5896H4.83979C3.73523 12.5896 2.8398 11.6942 2.8398 10.5896V7.19856ZM12.7313 5.19856C13.096 5.19856 13.4379 5.29616 13.7322 5.46668L8.89094 9.62633L3.84418 5.4636C4.13736 5.29499 4.47732 5.19856 4.8398 5.19856H12.7313Z" fill="#484848"/>
</svg>
