<svg width="271" height="283" viewBox="0 0 271 283" fill="none" xmlns="http://www.w3.org/2000/svg">
<g filter="url(#filter0_ddii_301_559)">
<rect x="58" y="54.6587" width="161" height="181" rx="11" transform="rotate(-19.0911 58 54.6587)" fill="white"/>
</g>
<g filter="url(#filter1_ddii_301_559)">
<rect x="58" y="54.6587" width="161" height="181" rx="11" transform="rotate(-19.0911 58 54.6587)" fill="white"/>
</g>
<g filter="url(#filter2_ii_301_559)">
<rect x="77.6587" y="70.5903" width="138.822" height="120.556" rx="6" transform="rotate(-19.3715 77.6587 70.5903)" fill="#F3CCD5"/>
</g>
<g filter="url(#filter3_ii_301_559)">
<path d="M151.515 180.163C151.376 178.965 151.014 177.815 150.451 176.776C149.887 175.734 149.135 174.822 148.236 174.088C147.304 173.326 146.231 172.77 145.08 172.454C143.467 172.005 141.762 172.036 140.149 172.539C139.763 172.66 139.387 172.806 139.022 172.977C138.798 172.642 138.552 172.323 138.283 172.021C137.161 170.757 135.717 169.852 134.103 169.404C132.941 169.081 131.75 169.004 130.556 169.176C129.403 169.341 128.297 169.732 127.273 170.336C126.253 170.934 125.35 171.733 124.613 172.688C123.847 173.681 123.284 174.805 122.944 176.029C122.624 177.183 122.512 178.447 122.614 179.794C122.7 180.919 122.935 182.127 123.315 183.386C123.918 185.379 124.902 187.557 126.237 189.858C128.449 193.672 130.887 196.56 130.991 196.678L131.62 197.421C131.9 197.749 132.341 197.871 132.75 197.735L133.672 197.423C133.823 197.372 137.397 196.159 141.263 194.033C143.593 192.75 145.561 191.393 147.105 189.996C148.08 189.114 148.908 188.201 149.559 187.281C150.341 186.18 150.897 185.039 151.218 183.885C151.561 182.662 151.659 181.409 151.515 180.163Z" fill="#EC7E98"/>
</g>
<g filter="url(#filter4_ii_301_559)">
<path d="M151.81 155.245C151.395 154.693 150.872 154.227 150.273 153.873C149.673 153.517 149.008 153.279 148.314 153.171C147.594 153.058 146.857 153.086 146.145 153.255C145.147 153.489 144.236 153.985 143.508 154.689C143.333 154.857 143.172 155.035 143.024 155.223C142.808 155.121 142.584 155.033 142.353 154.96C141.388 154.652 140.351 154.613 139.353 154.847C138.634 155.016 137.969 155.314 137.373 155.736C136.798 156.143 136.312 156.648 135.93 157.236C135.55 157.819 135.289 158.468 135.163 159.148C135.031 159.854 135.047 160.568 135.211 161.268C135.366 161.929 135.665 162.585 136.103 163.221C136.469 163.752 136.939 164.282 137.502 164.796C138.394 165.61 139.544 166.408 140.919 167.167C143.197 168.426 145.333 169.164 145.423 169.193L145.974 169.382C146.218 169.465 146.491 169.4 146.673 169.218L147.082 168.804C147.149 168.736 148.734 167.128 150.217 164.987C151.11 163.696 151.787 162.47 152.224 161.345C152.499 160.634 152.687 159.949 152.777 159.311C152.886 158.547 152.862 157.827 152.707 157.166C152.545 156.466 152.242 155.819 151.81 155.245Z" fill="#EC7E98"/>
</g>
<g filter="url(#filter5_ii_301_559)">
<ellipse cx="163" cy="104.5" rx="29" ry="29.5" transform="rotate(-16.9192 163 104.5)" fill="#FFB4B4"/>
</g>
<g filter="url(#filter6_i_301_559)">
<path d="M173.99 99.8535C175.521 100.185 176.093 102.068 175.006 103.196L162.579 116.091C161.52 117.19 159.669 116.745 159.225 115.285L154.15 98.6002C153.706 97.14 154.995 95.7405 156.487 96.0635L173.99 99.8535Z" fill="white"/>
</g>
<g filter="url(#filter7_ii_301_559)">
<path d="M136.142 142.85C136.045 142.236 135.827 141.645 135.501 141.111C135.174 140.575 134.747 140.104 134.241 139.725C133.717 139.33 133.12 139.041 132.484 138.874C131.592 138.638 130.658 138.647 129.782 138.898C129.572 138.958 129.369 139.031 129.172 139.118C129.043 138.945 128.903 138.781 128.75 138.625C128.114 137.973 127.307 137.503 126.414 137.267C125.772 137.097 125.118 137.052 124.466 137.136C123.837 137.215 123.237 137.411 122.686 137.716C122.137 138.019 121.655 138.425 121.268 138.911C120.864 139.417 120.575 139.99 120.409 140.616C120.253 141.206 120.213 141.853 120.292 142.544C120.358 143.12 120.507 143.74 120.737 144.387C121.101 145.411 121.678 146.531 122.449 147.715C123.726 149.678 125.111 151.168 125.17 151.229L125.528 151.612C125.686 151.781 125.93 151.846 126.152 151.777L126.652 151.621C126.734 151.596 128.673 150.989 130.756 149.915C132.012 149.268 133.068 148.58 133.891 147.871C134.41 147.422 134.849 146.958 135.19 146.489C135.6 145.928 135.886 145.346 136.042 144.756C136.209 144.131 136.242 143.489 136.142 142.85Z" fill="#EC7E98"/>
</g>
<defs>
<filter id="filter0_ddii_301_559" x="0.989746" y="0.98999" width="269.365" height="281.724" filterUnits="userSpaceOnUse" color-interpolation-filters="sRGB">
<feFlood flood-opacity="0" result="BackgroundImageFix"/>
<feColorMatrix in="SourceAlpha" type="matrix" values="0 0 0 0 0 0 0 0 0 0 0 0 0 0 0 0 0 0 127 0" result="hardAlpha"/>
<feOffset dx="-30" dy="30"/>
<feGaussianBlur stdDeviation="15"/>
<feComposite in2="hardAlpha" operator="out"/>
<feColorMatrix type="matrix" values="0 0 0 0 0 0 0 0 0 0 0 0 0 0 0 0 0 0 0.25 0"/>
<feBlend mode="normal" in2="BackgroundImageFix" result="effect1_dropShadow_301_559"/>
<feColorMatrix in="SourceAlpha" type="matrix" values="0 0 0 0 0 0 0 0 0 0 0 0 0 0 0 0 0 0 127 0" result="hardAlpha"/>
<feOffset/>
<feGaussianBlur stdDeviation="2"/>
<feComposite in2="hardAlpha" operator="out"/>
<feColorMatrix type="matrix" values="0 0 0 0 0 0 0 0 0 0 0 0 0 0 0 0 0 0 0.25 0"/>
<feBlend mode="normal" in2="effect1_dropShadow_301_559" result="effect2_dropShadow_301_559"/>
<feBlend mode="normal" in="SourceGraphic" in2="effect2_dropShadow_301_559" result="shape"/>
<feColorMatrix in="SourceAlpha" type="matrix" values="0 0 0 0 0 0 0 0 0 0 0 0 0 0 0 0 0 0 127 0" result="hardAlpha"/>
<feOffset dx="2" dy="-2"/>
<feGaussianBlur stdDeviation="2"/>
<feComposite in2="hardAlpha" operator="arithmetic" k2="-1" k3="1"/>
<feColorMatrix type="matrix" values="0 0 0 0 0 0 0 0 0 0 0 0 0 0 0 0 0 0 0.25 0"/>
<feBlend mode="normal" in2="shape" result="effect3_innerShadow_301_559"/>
<feColorMatrix in="SourceAlpha" type="matrix" values="0 0 0 0 0 0 0 0 0 0 0 0 0 0 0 0 0 0 127 0" result="hardAlpha"/>
<feOffset dx="-1" dy="1"/>
<feGaussianBlur stdDeviation="1"/>
<feComposite in2="hardAlpha" operator="arithmetic" k2="-1" k3="1"/>
<feColorMatrix type="matrix" values="0 0 0 0 1 0 0 0 0 1 0 0 0 0 1 0 0 0 0.25 0"/>
<feBlend mode="normal" in2="effect3_innerShadow_301_559" result="effect4_innerShadow_301_559"/>
</filter>
<filter id="filter1_ddii_301_559" x="0.989746" y="0.98999" width="269.365" height="281.724" filterUnits="userSpaceOnUse" color-interpolation-filters="sRGB">
<feFlood flood-opacity="0" result="BackgroundImageFix"/>
<feColorMatrix in="SourceAlpha" type="matrix" values="0 0 0 0 0 0 0 0 0 0 0 0 0 0 0 0 0 0 127 0" result="hardAlpha"/>
<feOffset dx="-30" dy="30"/>
<feGaussianBlur stdDeviation="15"/>
<feComposite in2="hardAlpha" operator="out"/>
<feColorMatrix type="matrix" values="0 0 0 0 0 0 0 0 0 0 0 0 0 0 0 0 0 0 0.25 0"/>
<feBlend mode="normal" in2="BackgroundImageFix" result="effect1_dropShadow_301_559"/>
<feColorMatrix in="SourceAlpha" type="matrix" values="0 0 0 0 0 0 0 0 0 0 0 0 0 0 0 0 0 0 127 0" result="hardAlpha"/>
<feOffset/>
<feGaussianBlur stdDeviation="2"/>
<feComposite in2="hardAlpha" operator="out"/>
<feColorMatrix type="matrix" values="0 0 0 0 0 0 0 0 0 0 0 0 0 0 0 0 0 0 0.25 0"/>
<feBlend mode="normal" in2="effect1_dropShadow_301_559" result="effect2_dropShadow_301_559"/>
<feBlend mode="normal" in="SourceGraphic" in2="effect2_dropShadow_301_559" result="shape"/>
<feColorMatrix in="SourceAlpha" type="matrix" values="0 0 0 0 0 0 0 0 0 0 0 0 0 0 0 0 0 0 127 0" result="hardAlpha"/>
<feOffset dx="2" dy="-2"/>
<feGaussianBlur stdDeviation="2"/>
<feComposite in2="hardAlpha" operator="arithmetic" k2="-1" k3="1"/>
<feColorMatrix type="matrix" values="0 0 0 0 0 0 0 0 0 0 0 0 0 0 0 0 0 0 0.25 0"/>
<feBlend mode="normal" in2="shape" result="effect3_innerShadow_301_559"/>
<feColorMatrix in="SourceAlpha" type="matrix" values="0 0 0 0 0 0 0 0 0 0 0 0 0 0 0 0 0 0 127 0" result="hardAlpha"/>
<feOffset dx="-1" dy="1"/>
<feGaussianBlur stdDeviation="1"/>
<feComposite in2="hardAlpha" operator="arithmetic" k2="-1" k3="1"/>
<feColorMatrix type="matrix" values="0 0 0 0 1 0 0 0 0 1 0 0 0 0 1 0 0 0 0.25 0"/>
<feBlend mode="normal" in2="effect3_innerShadow_301_559" result="effect4_innerShadow_301_559"/>
</filter>
<filter id="filter2_ii_301_559" x="78.3076" y="26.1929" width="169.153" height="157.479" filterUnits="userSpaceOnUse" color-interpolation-filters="sRGB">
<feFlood flood-opacity="0" result="BackgroundImageFix"/>
<feBlend mode="normal" in="SourceGraphic" in2="BackgroundImageFix" result="shape"/>
<feColorMatrix in="SourceAlpha" type="matrix" values="0 0 0 0 0 0 0 0 0 0 0 0 0 0 0 0 0 0 127 0" result="hardAlpha"/>
<feOffset dx="0.5" dy="0.5"/>
<feGaussianBlur stdDeviation="1"/>
<feComposite in2="hardAlpha" operator="arithmetic" k2="-1" k3="1"/>
<feColorMatrix type="matrix" values="0 0 0 0 0 0 0 0 0 0 0 0 0 0 0 0 0 0 0.25 0"/>
<feBlend mode="normal" in2="shape" result="effect1_innerShadow_301_559"/>
<feColorMatrix in="SourceAlpha" type="matrix" values="0 0 0 0 0 0 0 0 0 0 0 0 0 0 0 0 0 0 127 0" result="hardAlpha"/>
<feOffset dx="-1" dy="1"/>
<feGaussianBlur stdDeviation="1"/>
<feComposite in2="hardAlpha" operator="arithmetic" k2="-1" k3="1"/>
<feColorMatrix type="matrix" values="0 0 0 0 1 0 0 0 0 1 0 0 0 0 1 0 0 0 0.25 0"/>
<feBlend mode="normal" in2="effect1_innerShadow_301_559" result="effect2_innerShadow_301_559"/>
</filter>
<filter id="filter3_ii_301_559" x="121.577" y="168.086" width="31.002" height="30.7031" filterUnits="userSpaceOnUse" color-interpolation-filters="sRGB">
<feFlood flood-opacity="0" result="BackgroundImageFix"/>
<feBlend mode="normal" in="SourceGraphic" in2="BackgroundImageFix" result="shape"/>
<feColorMatrix in="SourceAlpha" type="matrix" values="0 0 0 0 0 0 0 0 0 0 0 0 0 0 0 0 0 0 127 0" result="hardAlpha"/>
<feOffset dx="1" dy="-1"/>
<feGaussianBlur stdDeviation="1"/>
<feComposite in2="hardAlpha" operator="arithmetic" k2="-1" k3="1"/>
<feColorMatrix type="matrix" values="0 0 0 0 0 0 0 0 0 0 0 0 0 0 0 0 0 0 0.25 0"/>
<feBlend mode="normal" in2="shape" result="effect1_innerShadow_301_559"/>
<feColorMatrix in="SourceAlpha" type="matrix" values="0 0 0 0 0 0 0 0 0 0 0 0 0 0 0 0 0 0 127 0" result="hardAlpha"/>
<feOffset dx="-1" dy="1"/>
<feGaussianBlur stdDeviation="1"/>
<feComposite in2="hardAlpha" operator="arithmetic" k2="-1" k3="1"/>
<feColorMatrix type="matrix" values="0 0 0 0 1 0 0 0 0 1 0 0 0 0 1 0 0 0 0.25 0"/>
<feBlend mode="normal" in2="effect1_innerShadow_301_559" result="effect2_innerShadow_301_559"/>
</filter>
<filter id="filter4_ii_301_559" x="134.075" y="152.103" width="19.769" height="18.3142" filterUnits="userSpaceOnUse" color-interpolation-filters="sRGB">
<feFlood flood-opacity="0" result="BackgroundImageFix"/>
<feBlend mode="normal" in="SourceGraphic" in2="BackgroundImageFix" result="shape"/>
<feColorMatrix in="SourceAlpha" type="matrix" values="0 0 0 0 0 0 0 0 0 0 0 0 0 0 0 0 0 0 127 0" result="hardAlpha"/>
<feOffset dx="1" dy="-1"/>
<feGaussianBlur stdDeviation="1"/>
<feComposite in2="hardAlpha" operator="arithmetic" k2="-1" k3="1"/>
<feColorMatrix type="matrix" values="0 0 0 0 0 0 0 0 0 0 0 0 0 0 0 0 0 0 0.25 0"/>
<feBlend mode="normal" in2="shape" result="effect1_innerShadow_301_559"/>
<feColorMatrix in="SourceAlpha" type="matrix" values="0 0 0 0 0 0 0 0 0 0 0 0 0 0 0 0 0 0 127 0" result="hardAlpha"/>
<feOffset dx="-1" dy="1"/>
<feGaussianBlur stdDeviation="1"/>
<feComposite in2="hardAlpha" operator="arithmetic" k2="-1" k3="1"/>
<feColorMatrix type="matrix" values="0 0 0 0 1 0 0 0 0 1 0 0 0 0 1 0 0 0 0.25 0"/>
<feBlend mode="normal" in2="effect1_innerShadow_301_559" result="effect2_innerShadow_301_559"/>
</filter>
<filter id="filter5_ii_301_559" x="132.949" y="74.0342" width="60.1008" height="60.9314" filterUnits="userSpaceOnUse" color-interpolation-filters="sRGB">
<feFlood flood-opacity="0" result="BackgroundImageFix"/>
<feBlend mode="normal" in="SourceGraphic" in2="BackgroundImageFix" result="shape"/>
<feColorMatrix in="SourceAlpha" type="matrix" values="0 0 0 0 0 0 0 0 0 0 0 0 0 0 0 0 0 0 127 0" result="hardAlpha"/>
<feOffset dx="1" dy="-1"/>
<feGaussianBlur stdDeviation="1"/>
<feComposite in2="hardAlpha" operator="arithmetic" k2="-1" k3="1"/>
<feColorMatrix type="matrix" values="0 0 0 0 0 0 0 0 0 0 0 0 0 0 0 0 0 0 0.25 0"/>
<feBlend mode="normal" in2="shape" result="effect1_innerShadow_301_559"/>
<feColorMatrix in="SourceAlpha" type="matrix" values="0 0 0 0 0 0 0 0 0 0 0 0 0 0 0 0 0 0 127 0" result="hardAlpha"/>
<feOffset dx="-1" dy="1"/>
<feGaussianBlur stdDeviation="1"/>
<feComposite in2="hardAlpha" operator="arithmetic" k2="-1" k3="1"/>
<feColorMatrix type="matrix" values="0 0 0 0 1 0 0 0 0 1 0 0 0 0 1 0 0 0 0.25 0"/>
<feBlend mode="normal" in2="effect1_innerShadow_301_559" result="effect2_innerShadow_301_559"/>
</filter>
<filter id="filter6_i_301_559" x="154.061" y="95.0166" width="22.5068" height="21.6873" filterUnits="userSpaceOnUse" color-interpolation-filters="sRGB">
<feFlood flood-opacity="0" result="BackgroundImageFix"/>
<feBlend mode="normal" in="SourceGraphic" in2="BackgroundImageFix" result="shape"/>
<feColorMatrix in="SourceAlpha" type="matrix" values="0 0 0 0 0 0 0 0 0 0 0 0 0 0 0 0 0 0 127 0" result="hardAlpha"/>
<feOffset dx="1" dy="-1"/>
<feGaussianBlur stdDeviation="2"/>
<feComposite in2="hardAlpha" operator="arithmetic" k2="-1" k3="1"/>
<feColorMatrix type="matrix" values="0 0 0 0 0 0 0 0 0 0 0 0 0 0 0 0 0 0 0.25 0"/>
<feBlend mode="normal" in2="shape" result="effect1_innerShadow_301_559"/>
</filter>
<filter id="filter7_ii_301_559" x="119.253" y="136.095" width="17.9458" height="16.7092" filterUnits="userSpaceOnUse" color-interpolation-filters="sRGB">
<feFlood flood-opacity="0" result="BackgroundImageFix"/>
<feBlend mode="normal" in="SourceGraphic" in2="BackgroundImageFix" result="shape"/>
<feColorMatrix in="SourceAlpha" type="matrix" values="0 0 0 0 0 0 0 0 0 0 0 0 0 0 0 0 0 0 127 0" result="hardAlpha"/>
<feOffset dx="1" dy="-1"/>
<feGaussianBlur stdDeviation="1"/>
<feComposite in2="hardAlpha" operator="arithmetic" k2="-1" k3="1"/>
<feColorMatrix type="matrix" values="0 0 0 0 0 0 0 0 0 0 0 0 0 0 0 0 0 0 0.25 0"/>
<feBlend mode="normal" in2="shape" result="effect1_innerShadow_301_559"/>
<feColorMatrix in="SourceAlpha" type="matrix" values="0 0 0 0 0 0 0 0 0 0 0 0 0 0 0 0 0 0 127 0" result="hardAlpha"/>
<feOffset dx="-1" dy="1"/>
<feGaussianBlur stdDeviation="1"/>
<feComposite in2="hardAlpha" operator="arithmetic" k2="-1" k3="1"/>
<feColorMatrix type="matrix" values="0 0 0 0 1 0 0 0 0 1 0 0 0 0 1 0 0 0 0.25 0"/>
<feBlend mode="normal" in2="effect1_innerShadow_301_559" result="effect2_innerShadow_301_559"/>
</filter>
</defs>
</svg>
