<svg width="18" height="18" viewBox="0 0 18 18" fill="none" xmlns="http://www.w3.org/2000/svg">
<path fill-rule="evenodd" clip-rule="evenodd" d="M8.87428 0C3.97315 0 0 3.97313 0 8.87424C0 13.7754 3.97315 17.7485 8.87428 17.7485C13.7754 17.7485 17.7486 13.7754 17.7486 8.87424C17.7486 3.97313 13.7754 0 8.87428 0ZM11.7002 5.64727C11.9456 5.64727 12.0966 5.82161 12.1013 6.05051C12.1013 6.27466 11.9456 6.45402 11.6955 6.45402H11.6909C11.4502 6.45402 11.2945 6.27466 11.2945 6.05051C11.2945 5.82161 11.4549 5.64727 11.7002 5.64727ZM11.2945 8.87428C11.2945 10.2109 10.2109 11.2945 8.87422 11.2945C7.53755 11.2945 6.45397 10.2109 6.45397 8.87428C6.45397 7.53761 7.53755 6.45403 8.87422 6.45403C10.2109 6.45403 11.2945 7.53761 11.2945 8.87428ZM6.0338 3.28375C4.51502 3.28375 3.2838 4.51497 3.2838 6.03375V11.7148C3.2838 13.2335 4.51502 14.4648 6.0338 14.4648H11.7148C13.2336 14.4648 14.4648 13.2335 14.4648 11.7148V6.03375C14.4648 4.51497 13.2336 3.28375 11.7148 3.28375H6.0338ZM4.7838 6.03375C4.7838 5.34339 5.34345 4.78375 6.0338 4.78375H11.7148C12.4052 4.78375 12.9648 5.34339 12.9648 6.03375V11.7148C12.9648 12.4051 12.4052 12.9648 11.7148 12.9648H6.0338C5.34345 12.9648 4.7838 12.4051 4.7838 11.7148V6.03375Z" fill="#484848"/>
</svg>
