<svg width="18" height="18" viewBox="0 0 18 18" fill="none" xmlns="http://www.w3.org/2000/svg">
<path fill-rule="evenodd" clip-rule="evenodd" d="M8.87425 17.7485C13.7754 17.7485 17.7485 13.7754 17.7485 8.87425C17.7485 3.97314 13.7754 0 8.87425 0C3.97314 0 0 3.97314 0 8.87425C0 13.7754 3.97314 17.7485 8.87425 17.7485ZM11.714 2.66223H5.85702V15.0653H11.714V2.66223ZM11.025 3.69585H6.54607V13.6872H11.025V3.69585ZM9.30227 14.3763C9.30227 14.5665 9.14801 14.7208 8.95774 14.7208C8.76746 14.7208 8.61321 14.5665 8.61321 14.3763C8.61321 14.186 8.76746 14.0317 8.95774 14.0317C9.14801 14.0317 9.30227 14.186 9.30227 14.3763Z" fill="#484848"/>
</svg>
